<?xml version="1.0" encoding="UTF-8"?>
<svg id="Layer_1" xmlns="http://www.w3.org/2000/svg" version="1.1" viewBox="0 0 1080 764.26">
  <!-- Generator: Adobe Illustrator 29.1.0, SVG Export Plug-In . SVG Version: 2.1.0 Build 142)  -->
  <path d="M37.35,80.02h68.48v156.17h3.42l31.2-156.17h69.24l-41.94,187.76,41.94,116.59h-69.24l-31.2-90.91h-3.42v90.91H37.35V80.02Z"/>
  <path d="M240.12,80.02h77.99l40.71,182.61h3.04l-3.8-182.61h64.68v304.36h-77.99l-40.71-182.61h-3.04l3.8,182.61h-64.68V80.02Z"/>
  <path d="M462.68,306.77v-149.13c0-49.08,34.62-83.7,83.7-83.7s83.7,34.62,83.7,83.7v149.13c0,49.08-34.62,83.7-83.7,83.7s-83.7-34.62-83.7-83.7ZM546.38,328.83c9.13,0,15.22-6.09,15.22-15.22v-162.83c0-9.13-6.09-15.22-15.22-15.22s-15.22,6.09-15.22,15.22v162.83c0,9.13,6.09,15.22,15.22,15.22Z"/>
  <path d="M658.61,80.02h63.92l14.08,227.51h3.04l14.84-227.51h62.01l14.84,227.51h3.04l14.08-227.51h63.92l-21.69,304.36h-90.55l-12.94-225.6h-3.42l-12.94,225.6h-90.55l-21.69-304.36Z"/>
  <rect x="37.35" y="431.35" width="68.48" height="304.36"/>
  <path d="M140.07,658.1v-20.54h68.48v27.39c0,9.13,6.09,15.22,15.22,15.22s15.22-6.09,15.22-15.22c0-36.9-98.92-92.45-98.92-164.35,0-42.61,34.62-75.33,82.94-75.33s80.65,35,80.65,85.98v10.65h-64.67v-19.78c0-9.13-6.09-15.22-15.22-15.22s-15.22,6.09-15.22,15.6c0,38.04,98.92,85.6,98.92,159.03,0,43.37-33.86,80.27-84.08,80.27s-83.32-34.62-83.32-83.7Z"/>
  <g>
    <path d="M424.1,431.35h-83.7v304.36h68.48v-111.85h15.22c9.13,0,15.22,6.09,15.22,15.22v96.63h68.48v-81.42c0-25.87-12.93-47.18-33.86-59.73v-3.04c20.92-12.55,33.86-33.86,33.86-59.73v-20.54c0-47.18-34.62-79.89-83.7-79.89ZM439.32,547.01c0,9.13-6.09,15.22-15.22,15.22h-15.22v-69.24h15.22c9.13,0,15.22,6.09,15.22,15.22v38.81Z"/>
    <path d="M682.42,431.35h-118.7l-29.29,304.36h68.48l4.95-64.3h30.43l4.95,64.3h68.48l-29.29-304.36ZM612.8,609.78l9.13-116.8h2.28l9.13,116.8h-20.54Z"/>
  </g>
  <polygon points="743.45 431.35 880.41 431.35 880.41 492.98 811.93 492.98 811.93 548.91 880.41 548.91 880.41 610.54 811.93 610.54 811.93 674.08 880.41 674.08 880.41 735.71 743.45 735.71 743.45 431.35"/>
  <polygon points="914.65 431.35 983.13 431.35 983.13 674.08 1051.61 674.08 1051.61 735.71 914.65 735.71 914.65 431.35"/>
  <path d="M209.69,80.02"/>
  <polygon points="221.9 29 209.69 80.02 240.12 80.02 240.12 15.09 221.9 29"/>
</svg>